<svg xmlns="http://www.w3.org/2000/svg" viewBox="0 0 240 240" width="40" height="40"><defs><linearGradient id="a" x1=".7" y1=".2" x2=".4" y2=".8"><stop stop-color="#37aee2" offset="0"/><stop stop-color="#1e96c8" offset="1"/></linearGradient><linearGradient id="b" x1=".7" y1=".4" x2=".9" y2=".8"><stop stop-color="#eff7fc" offset="0"/><stop stop-color="#ffffff" offset="1"/></linearGradient></defs><circle cx="120" cy="120" r="120" fill="#444444"/><path fill="#dddddd" d="M98 175c-3.9 0-3.2-1.5-4.6-5.2L82 132.2 170 80"/><path fill="#bbbbbb" d="M98 175c3 0 4.3-1.4 6-3l16-15.6-20-12"/><path fill="url(#b)" d="M100 144.4l48.4 35.7c5.5 3 9.5 1.5 10.9-5L179 82.2c2-8.1-3.1-11.8-8.4-9.4L55 117.5c-7.9 3.1-7.8 7.5-1.4 9.5l29.6 9.3L152 92.9c3.3-2 6.2-.9 3.8 1.3"/></svg>