<svg xmlns="http://www.w3.org/2000/svg" viewBox="0 0 64 64" width="40" height="40"><g><circle cx="32" cy="32" r="32" fill="#444444"/><g opacity="0.2"><path d="M52 44a4 4 0 0 1-4 4H16a4 4 0 0 1-4-4V24a4 4 0 0 1 4-4h32a4 4 0 0 1 4 4v20z" fill="#231f20"/></g><path d="M52 42a4 4 0 0 1-4 4H16a4 4 0 0 1-4-4V22a4 4 0 0 1 4-4h32a4 4 0 0 1 4 4v20z" fill="#e0e0d1"/><g opacity="0.2"><path d="M35.5 30.2a4.7 4.7 0 0 0-7 0L13 43.2l-.5.6a4 4 0 0 0 3.4 2.2h32c1.5 0 2.7-.9 3.4-2.2l-.5-.6-15.3-13z" fill="#231f20"/></g><path d="M35.5 32a5 5 0 0 0-7 0L13 43.5l-.5.5c.7 1.2 2 1.9 3.4 1.9h32a4 4 0 0 0 3.4-1.9l-.5-.5L35.5 32z" fill="#e0e0d1"/><g opacity="0.2"><path d="M12.6 20.2A4 4 0 0 1 16 18h32c1.5 0 2.7.9 3.4 2.2l-.5.6-15.4 13a4.7 4.7 0 0 1-7 0L12.6 20.2z" fill="#231f20"/></g><path d="M28.5 32a5 5 0 0 0 7 0L51 20.5l.5-.5c-.7-1.2-2-1.9-3.4-1.9H16a4 4 0 0 0-3.4 1.9l.5.5L28.5 32z" fill="#ffffff"/></g></svg>