<svg xmlns="http://www.w3.org/2000/svg" width="138" height="30"><path fill-rule="evenodd" fill="#D22425" d="M137.541 8.238S136.219.658 131.798 0H138l-.459 8.238zM122.15 27.461V0h5.743v27.504c0 1.893 1.378 2.475 1.378 2.475h-8.959c1.585 0 1.838-2.518 1.838-2.518zm-9.877-19.223L111.813 0h6.202c-4.42.658-5.742 8.238-5.742 8.238zM93.896 27.504S77.347 3.482 76.438 2.06C75.529.638 74.141 0 74.141 0h10.107c-2.508 0-.919 2.517-.919 2.517l16.31 23.571c2.581 3.625 3.445 3.891 3.445 3.891h-9.648c2.005-.394.46-2.475.46-2.475zM94.585 0h6.432s-3.424 1.783-5.284 5.035c0 0 2.179-3.635-1.148-5.035zm-31.47 23.113v6.866h-5.513s4.184-1.009 5.513-6.866zm0-23.113v6.865C61.786 1.009 57.602 0 57.602 0h5.513zm-5.52 18.295c.006.147 0 .241 0 .241v-.241zm-5.143-3.406c1.228.014 5.143-.247 5.143-4.133v7.539c-.036-.786-.529-3.275-5.143-3.406zm0 0c-.228-.002-.363-.014-.363-.014.129 0 .24.011.363.014zm-2.66-11.685v24.3c0 1.893 1.378 2.475 1.378 2.475h-8.959c1.585 0 1.838-2.518 1.838-2.518V3.204C44.049.542 42.211 0 42.211 0H51.4c-1.872 0-1.608 3.204-1.608 3.204zM30.51 4.914c-.024-1.408-.453-4.907-4.149-4.907h7.545c-.808.046-3.201.552-3.396 4.907zm-.014.578c0-.2.005-.392.014-.578.006.354-.014.578-.014.578zM34.171.007h-.265c.165-.009.265 0 .265 0zm-3.905 29.994L10.052 5.275V5.26h-.019A12.056 12.056 0 0 0 .175.003V0h13.093l16.998 20.847v9.154zM9.809 25.064c.023 1.408.452 4.908 4.148 4.908H6.412c.808-.046 3.202-.552 3.397-4.908zm.013-.578c0 .201-.005.392-.013.578-.006-.354.013-.578.013-.578zm-3.675 5.486h.265c-.165.009-.265 0-.265 0zm74.885-6.401c-3.244 5.023.919 6.408.919 6.408h-7.81c2.062 0 6.891-6.408 6.891-6.408z"/></svg>