<svg xmlns="http://www.w3.org/2000/svg" width="97" height="55" viewBox="0 0 97 55"><g fill="#363636"><path d="M84 32.6V20c0-1.3 1.2-2.4 2.5-2.4l8.3 1.6V11c0-2.3-1.7-3.4-4.2-4.2L67.4.2c1.6 1.4 2 2 2 4.4v45.2c0 2.3-.6 4-2 5.2l23.2-7c2.4-1 4.2-4.3 4.2-6.6v-8L86.5 35c-1.3 0-2.4-1-2.4-2.4z"/><path d="M95 21l-7.5-1.5c-1 0-1.8 1-1.8 2v9.8c0 1 .8 1.8 1.8 1.8l7.6-1.3c1.3-.4 2-1 2-2v-7c0-1-.8-1.4-2-1.7zM67.2 4.5C67.2-.5 63 0 63 0S5.7 4.7 2.7 5 0 9.6 0 9.6v36.3l2.6 3.8L19 51l8.2-11.7s1-1.8 2.5-1.8c1.4 0 2.4 1.8 2.4 1.8L41.3 53s19 1.8 22.5 1.8c3.7 0 3.5-5 3.5-5V4.4zM13 37.2c-3.7 0-6.7-4.6-6.7-10.3s3-10.4 6.7-10.4 6.7 4.6 6.7 10.3S16.7 37 13 37zm36 1.4c-4.5 0-8.3-5.2-8.3-11.7 0-6.5 3.8-11.8 8.4-11.8 4.8 0 8.6 5.3 8.6 11.7 0 6.4-3.8 11.6-8.5 11.6z"/></g></svg>