<svg xmlns="http://www.w3.org/2000/svg" width="71" height="87" viewBox="0 0 71 87"><g fill="#363636"><path d="M53.3 1.5C53.3.8 52.8 0 52 0H9c-.7 0-1.3.8-1.3 1.5V5h45.6V1.5zM54.2 81.8h-9.6V71.4h-7V74H18.8c-.6-1.3-1.8-2.2-3.2-2.2h-12c-2 0-3.6 1.6-3.6 3.5v3c0 2 1.6 3.5 3.6 3.5h12c1.5 0 2.8-1 3.3-2.3h18.6v2.3H28c-.4 0-1 .4-1 1V86c0 .5.6 1 1 1h26.2c.5 0 1-.5 1-1v-3.2c0-.6-.5-1-1-1zM60.7 12.4c-1-3-3.6-5-6.8-5H7c-3.8 0-7 3-7 7v47c0 3.8 3.3 7 7 7h47c3.8 0 7-3.2 7-7V50.8c6-4.3 10-11.3 10-19.2 0-8-4-15.2-10.3-19.4zM12.2 62.2c-3.2 0-6-2.7-6-6 0-3.2 2.8-6 6-6s6 2.8 6 6c0 3.3-2.7 6-6 6zm6-32.7c0 .8-.6 1.5-1.4 1.5h-9c-.7 0-1.4-.7-1.4-1.5v-14c0-1 .7-1.5 1.4-1.5h9c.8 0 1.4.6 1.4 1.4v14zM47.8 52c-11 0-20-9.2-20-20.3s9-20 20-20 20 9 20 20-9 20.2-20 20.2z"/><ellipse cx="47.8" cy="31.7" rx="12.2" ry="12.2"/><circle cx="31.6" cy="31.7" r="1.4"/><circle cx="64" cy="31.7" r="1.4"/><circle cx="39.1" cy="18" r="1.4"/><ellipse cx="56.4" cy="45.5" rx="1.4" ry="1.4"/><circle cx="55.7" cy="17.6" r="1.4"/><circle cx="39.8" cy="45.9" r="1.4"/></g></svg>