<svg xmlns="http://www.w3.org/2000/svg" width="107" height="65" viewBox="0 0 107 65"><g fill="#363636"><path d="M99 4c.7 1.5 1.2 3.2 1.2 5v21c0 4.6-3 8.5-7.3 10-1.4 4-3.8 7.7-8 10.3-8.8 5.3-31.2 5-31.3 5 0 0-22.5.3-31.2-5-4.2-2.5-6.7-6.3-8-10.3-4.5-1.2-7.8-5.2-7.8-10V9c0-1.8.4-3.4 1-4.8C4.3 5.2 0 7 0 10.4v30c0 10.3 11.8 24.4 53.7 24.4 41.8 0 53.6-14 53.6-24.4v-30c0-3.7-4.6-5.5-8.3-6.3z"/><path d="M20.6 38.5H86c5.6 0 10.2-4.6 10.2-10V9.8c0-5.6-4.6-10-10-10H20.5c-5.6 0-10 4.4-10 10v18.4c0 5.5 4.4 10 10 10zm63-29c1 0 1.7.7 1.7 1.5 0 1-.7 1.6-1.6 1.6S82 12 82 11c0-.8.8-1.5 1.7-1.5zm0 4c1 0 1.7.7 1.7 1.6 0 1-.7 1.6-1.6 1.6S82 16 82 15s.8-1.5 1.7-1.5zm0 4c1 0 1.7.7 1.7 1.6 0 1-.7 1.7-1.6 1.7S82 20 82 19c0-.8.8-1.5 1.7-1.5zm0 4c1 0 1.7.6 1.7 1.4 0 .8-.7 1.5-1.6 1.5S82 23.8 82 23c0-1 .8-1.6 1.7-1.6zm0 4c1 0 1.7.6 1.7 1.5 0 .8-.7 1.5-1.6 1.5S82 27.8 82 27c0-1 .8-1.6 1.7-1.6zm-4-16c1 0 1.6.7 1.6 1.5 0 1-.7 1.6-1.5 1.6-1 0-1.6-.7-1.6-1.6 0-.8.8-1.5 1.7-1.5zm0 16c1 0 1.6.6 1.6 1.5 0 .8-.7 1.5-1.5 1.5-1 0-1.6-.7-1.6-1.5 0-1 .8-1.6 1.7-1.6zm-4-16c1 0 1.6.7 1.6 1.5 0 1-.7 1.6-1.6 1.6-.8 0-1.5-.7-1.5-1.6 0-.8.8-1.5 1.6-1.5zm0 4c1 0 1.6.7 1.6 1.6 0 1-.7 1.6-1.6 1.6-.8 0-1.5-.7-1.5-1.5s.8-1.5 1.6-1.5zm0 4c1 0 1.6.7 1.6 1.6 0 1-.7 1.7-1.6 1.7-.8 0-1.5-.7-1.5-1.6 0-.8.8-1.5 1.6-1.5zm0 4c1 0 1.6.6 1.6 1.4 0 .8-.7 1.5-1.6 1.5-.8 0-1.5-.7-1.5-1.6 0-1 .8-1.6 1.6-1.6zm0 4c1 0 1.6.6 1.6 1.5 0 .8-.7 1.5-1.6 1.5-.8 0-1.5-.7-1.5-1.5 0-1 .8-1.6 1.6-1.6zM68 9.4c.8 0 1.5.7 1.5 1.5 0 1-.7 1.6-1.5 1.6s-1.6-.7-1.6-1.6c0-.8.7-1.5 1.6-1.5zm0 8c.8 0 1.5.7 1.5 1.6 0 1-.7 1.7-1.5 1.7s-1.6-.7-1.6-1.6c0-.8.7-1.5 1.6-1.5zm0 4c.8 0 1.5.6 1.5 1.5 0 1-.7 1.6-1.5 1.6s-1.6-.7-1.6-1.6c0-1 .7-1.6 1.6-1.6zm0 4c.8 0 1.5.6 1.5 1.5 0 .8-.7 1.5-1.5 1.5s-1.6-.7-1.6-1.5c0-1 .7-1.6 1.6-1.6zm-4-16c.8 0 1.5.7 1.5 1.5 0 1-.7 1.6-1.6 1.6-1 0-1.6-.7-1.6-1.6 0-.8.7-1.5 1.5-1.5zm0 8c.8 0 1.5.7 1.5 1.6 0 1-.7 1.7-1.6 1.7-1 0-1.6-.7-1.6-1.6 0-.8.7-1.5 1.5-1.5zm0 8c.8 0 1.5.6 1.5 1.5 0 .8-.7 1.5-1.6 1.5-1 0-1.6-.7-1.6-1.5 0-1 .7-1.6 1.5-1.6zm-4-16c.8 0 1.5.7 1.5 1.5 0 1-.7 1.6-1.6 1.6-1 0-1.7-.7-1.7-1.6 0-.8.7-1.5 1.6-1.5zm0 4c.8 0 1.5.7 1.5 1.6 0 1-.7 1.6-1.6 1.6-1 0-1.7-.7-1.7-1.5s.7-1.5 1.6-1.5zm0 4c.8 0 1.5.7 1.5 1.6 0 1-.7 1.7-1.6 1.7-1 0-1.7-.7-1.7-1.6 0-.8.7-1.5 1.6-1.5zm0 8c.8 0 1.5.6 1.5 1.5 0 .8-.7 1.5-1.6 1.5-1 0-1.7-.7-1.7-1.5 0-1 .7-1.6 1.6-1.6zm-8.4-16c1 0 1.6.7 1.6 1.5 0 1-.7 1.6-1.6 1.6-1 0-1.6-.7-1.6-1.6 0-.8.7-1.5 1.6-1.5zm0 4c1 0 1.6.7 1.6 1.6 0 1-.7 1.6-1.6 1.6-1 0-1.6-.7-1.6-1.5s.7-1.5 1.6-1.5zm0 4c1 0 1.6.7 1.6 1.6 0 1-.7 1.7-1.6 1.7-1 0-1.6-.7-1.6-1.6 0-.8.7-1.5 1.6-1.5zm0 4c1 0 1.6.6 1.6 1.5 0 1-.7 1.6-1.6 1.6-1 0-1.6-.7-1.6-1.6 0-1 .7-1.6 1.6-1.6zm0 4c1 0 1.6.6 1.6 1.5 0 .8-.7 1.5-1.6 1.5-1 0-1.6-.7-1.6-1.5 0-1 .7-1.6 1.6-1.6zm-4-12c.8 0 1.5.7 1.5 1.6 0 1-.6 1.6-1.4 1.6S46 16 46 15s.7-1.5 1.6-1.5zm-8.5-.2c1 0 1.6.7 1.6 1.6 0 .7-.7 1.4-1.5 1.4s-1.5-.7-1.5-1.5c0-1 .7-1.7 1.6-1.7zm0 4c1 0 1.6.7 1.6 1.6 0 .8-.7 1.5-1.5 1.5s-1.5-.7-1.5-1.6c0-1 .7-1.7 1.6-1.7zm-4-8c1 0 1.6.7 1.6 1.5 0 1-.7 1.6-1.6 1.6-.8 0-1.6-.7-1.6-1.6 0-.8.8-1.5 1.6-1.5zm0 4c1 0 1.6.7 1.6 1.6 0 .7-.7 1.4-1.6 1.4-.8 0-1.6-.7-1.6-1.5 0-1 .8-1.7 1.6-1.7zm0 4c1 0 1.6.7 1.6 1.6 0 .8-.7 1.5-1.6 1.5-.8 0-1.6-.7-1.6-1.6 0-1 .8-1.7 1.6-1.7zm0 4c1 0 1.6.8 1.6 1.6s-.7 1.5-1.6 1.5c-.8 0-1.6-.7-1.6-1.6 0-1 .8-1.6 1.6-1.6zm-4.2-8c.8 0 1.5.7 1.5 1.6 0 .7-.7 1.4-1.5 1.4-1 0-1.6-.7-1.6-1.5 0-1 .7-1.7 1.6-1.7zm0 4c.8 0 1.5.7 1.5 1.6 0 .8-.7 1.5-1.5 1.5-1 0-1.6-.7-1.6-1.6 0-1 .7-1.7 1.6-1.7zm0 4c.8 0 1.5.8 1.5 1.6s-.7 1.5-1.5 1.5c-1 0-1.6-.7-1.6-1.6 0-1 .7-1.6 1.6-1.6zm0 4c.8 0 1.5.8 1.5 1.7 0 .8-.7 1.5-1.5 1.5-1 0-1.6-.7-1.6-1.5 0-1 .7-1.6 1.6-1.6zm-4.5-16c1 0 1.6.7 1.6 1.5 0 1-.8 1.6-1.7 1.6-1 0-1.6-.7-1.6-1.6 0-.8.7-1.5 1.6-1.5zm0 4c1 0 1.6.7 1.6 1.6 0 .7-.8 1.4-1.7 1.4-1 0-1.6-.7-1.6-1.5 0-1 .7-1.7 1.6-1.7zm0 4c1 0 1.6.7 1.6 1.6 0 .8-.8 1.5-1.7 1.5-1 0-1.6-.7-1.6-1.6 0-1 .7-1.7 1.6-1.7zm0 4c1 0 1.6.8 1.6 1.6s-.8 1.5-1.7 1.5c-1 0-1.6-.7-1.6-1.6 0-1 .7-1.6 1.6-1.6zm-4-8c.8 0 1.5.7 1.5 1.6 0 .7-.7 1.4-1.5 1.4-1 0-1.6-.7-1.6-1.5 0-1 .7-1.7 1.6-1.7zm0 4c.8 0 1.5.7 1.5 1.6 0 .8-.7 1.5-1.5 1.5-1 0-1.6-.7-1.6-1.6 0-1 .7-1.7 1.6-1.7z"/></g></svg>