<svg xmlns="http://www.w3.org/2000/svg" width="132" height="69" viewBox="0 0 132 69"><g fill="#363636"><path d="M12 .3C6.6.7 2 2 .7 3c-.7.5-.7.5-.3 1C1 5 4 5.8 7.6 6.4c4 .7 12.5.7 13.7 0 1.2-.6 1.6-1.3 1.6-3C23 2 22.2 1 20.6.6 19.3.2 15 0 12 .3zM25.8.5c-.2.3-.3 2-.3 4 0 4.2.2 4-2.2 4h-1v2.7l-.3 2.5-1.2.3c-2.5.6-4 2.6-3.7 5.3.2 2 1 3.3 2.6 4 1 .6 1.5.6 11.3.6h10c0 .2-1 9.5-2.5 20.7l-2.7 21.7c0 1.6.8 2.6 2.3 2.6 1.4 0 2-.6 2.5-2l3-21.7c1.5-11.5 2.8-21 3-21l2 3.3c3 4.6 2.5 4.3 7.7 4.3h4.4v5.5h-5c-5 .2-5.3.2-6 .7-1.6 1-1.6 1.4-1.6 11 0 9.5 0 9.8 1.5 11l.8.7h31.4l.8-.8C84 59 84 58.7 84 49.2c0-9.6 0-10-1.6-11-.6-.5-1-.5-5.8-.6h-5.2v-5.7h4.4c5.2 0 4.7.2 7.6-4.4 1-1.8 2-3.2 2.2-3.2l3 21c1.5 11.4 2.8 21.2 3 21.7.3 1.4 1 2 2.3 2 1.4 0 2.3-1 2.2-2.6l-2.7-21.7C92 33.5 91 24.2 91 24h10c10 0 10.3 0 11.4-.6 1.5-.8 2.4-2.2 2.6-4 .2-2.8-1.2-4.8-3.8-5.4l-1.2-.3v-2.5l-.3-2.6h-1c-2.3-.2-2.2 0-2.2-4 0-2 0-3.8-.2-4-.3-.5-.6-.6-1.4-.6-.7 0-1.4 0-1.5.3-.2.2-.3 1.5-.3 4 0 2.4 0 3.7-.4 4l-1.6.2c-1.6 0-1.7 0-1.7 3V14h-67v-2.4c0-3 0-3-1.7-3-.7 0-1.4-.2-1.6-.4-.2-.2-.3-1.5-.3-4 0-2.4-.2-3.7-.4-4L27 0c-.7 0-1 0-1.2.5zm42.8 40c3 1 5.4 3.5 6.2 6.3.4 1.5.3 4.2-.3 5.8-.7 1.8-2.7 4-4.6 5-1.4.5-1.8.6-4 .6s-2.6 0-4-.7c-1.8-1-3.8-3-4.5-5-.6-1.5-.7-4.2-.3-5.7.8-2.7 3.3-5.3 6-6.2 2-.6 3.4-.6 5.4 0z"/><path d="M63.8 44.4c-2 1-3.5 3.7-3 5.8.7 3.6 4.7 5.5 8 3.7 2-1.3 3-3.7 2.4-6-.6-2.3-2.8-4-5.2-4-.6 0-1.6.2-2.2.4zM36 .2c-3.8.6-4.4 1-4.4 3.4 0 1.8.4 2.4 2.2 3 1.6.4 7.2.5 10.5 0C51.3 6 55.7 4.2 54 3c-1.2-1-5-2-9-2.5-2.5-.3-8-.5-9-.3zM89.5.3c-6.3.5-12 2-12 3 0 2 8 3.6 15.8 3.6 5.8 0 7-.7 7-3.4 0-1.8-.5-2.6-2.2-3-1.6-.5-5.6-.6-8.5-.3zM112.8.3c-1.8.2-3 .8-3.5 1.5-.3.7-.3 3 .2 3.5 1 1.4 1.7 1.5 7 1.5 3.7 0 6 0 8-.5 3.5-.6 6.5-1.5 7.2-2.2.5-.5.5-.5-.2-1-1.4-1.2-6-2.3-12-2.7-3.4-.3-4.5-.3-6.7 0z"/></g></svg>