<svg xmlns="http://www.w3.org/2000/svg" width="86" height="117" viewBox="0 0 86 117"><g fill="#363636"><path d="M82.8 4H3.3C1.6 4 0 5.4 0 7.2v46.4c0 1.8 1.6 3.2 3.3 3.2h79.5c1.8 0 3.2-1.4 3.2-3.2V7.2C86 5.4 84.6 4 82.8 4zM8.4 37.2h-.2C6.4 37.2 5 35.8 5 34v-7.2c0-1.8 1.4-3.2 3.2-3.2h.2v13.6zm61.2 15.2H13.3v-44h56.3v44zm8.8-17.8c-2.3 0-4-2-4-4.2s1.7-4 4-4 4 1.7 4 4-1.7 4.2-4 4.2zM31.5 0h23.2v2.8H31.5zM46.6 65v-3h8v-3h-23v3h8v35c-2.2 1-3.7 3.2-3.7 5.7V117H50v-14.3c0-2.5-1.5-4.6-3.6-5.6V69h4.8l5 1.4v-6.8l-5 1.3h-4.8z"/></g></svg>