<svg xmlns="http://www.w3.org/2000/svg" width="56" height="98" viewBox="0 0 56 98"><g fill="#363636"><path d="M54.5 32.2H53v-4.6c0-5-4-9.2-9-9.2H9c-5 0-9 4-9 9.2v42.8c0 5 4 9.2 9 9.2h35c5 0 9-4 9-9.2V67h1.5c.4 0 .8-.3.8-.8V52.5c0-.5-.4-.8-.8-.8H53V43h1.5c.8 0 1.5-.8 1.5-1.6v-7.7c0-.8-.7-1.5-1.5-1.5zm-20.4-3c3 0 5.4 2.3 5.4 5.2S37 39.8 34 39.8 29 37.4 29 34.4 31.2 29 34 29zm-15 0c3 0 5.2 2.3 5.2 5.2S22 39.8 19 39.8s-5.4-2.4-5.4-5.4S16 29 19 29zM5.2 49.3c0-3 2.4-5.4 5.3-5.4 3 0 5.3 2.4 5.3 5.4 0 3-2.5 5.4-5.4 5.4-3 0-5.3-2.4-5.3-5.4zM19 69c-3 0-5.4-2.5-5.4-5.5s2.4-5.3 5.3-5.3c3 0 5.2 2.4 5.2 5.3S22 69 19 69zm1.4-20c0-3.4 2.7-6 6-6 3.4 0 6 2.6 6 6s-2.6 6-6 6c-3.3 0-6-2.6-6-6zM34 69c-2.8 0-5.2-2.5-5.2-5.5s2.4-5.3 5.3-5.3 5.4 2.4 5.4 5.3S37 69 34 69zm8.4-14.2c-3 0-5.3-2.4-5.3-5.4 0-3 2.5-5.4 5.4-5.4 3 0 5.3 2.4 5.3 5.4 0 3-2.4 5.4-5.3 5.4zM9.6 15.3h33.7c1 0 1.5-.7 1.3-1.5L43 3c-.2-1.6-1.8-3-3.5-3h-26c-1.7 0-3.3 1.4-3.5 3L8.3 13.8c0 .8.5 1.5 1.3 1.5zM43.3 82.7H9.6c-.8 0-1.4.7-1.3 1.5L10 95c.2 1.6 1.8 3 3.5 3h26c1.7 0 3.3-1.4 3.5-3l1.6-10.8c.2-.8-.4-1.5-1.3-1.5z"/></g></svg>