<svg xmlns="http://www.w3.org/2000/svg" width="136" height="164" viewBox="0 0 136 164"><g fill="#FFF"><path d="M93 38.8c8.3 0 15-5.6 17-13l5.5.7h.3c1 0 2-.7 2.2-1.8 0-1.2-.7-2.3-2-2.4l-5.4-1v-.5s-.5-6.6-1-9.3c-.7-2.7-2.6-3.3-2.6-3.3C97.2 6 87.2 5.8 84.6 5.8S81.4 7 81.4 7l-3 5-.3.5c-1.5 2.6-2.3 5.6-2.3 8.8 0 9.6 7.8 17.5 17.4 17.5zM131.5 78l-26.7-2-9.3-21.2s-.4-2.8-6-8.5C84 40.6 72.7 43 72.7 43S49 47.3 41 49c-8 2-8.2 10-8.2 10l-.6 4.4-15.2-3h-.6c-1.4 0-2.6 1-3 2.5l-7.3 38.3c-.2 1.6.8 3.2 2.5 3.5l51.2 10h.3-1.3l-9.4-2-3 17.2-23.6 20.4c-1.7 1.3-2.8 3.4-2.8 5.8 0 4 3.2 7.4 7.3 7.4 2 0 4-.8 5.2-2.2L62 138c2-1.7 3-4 3-4s4.4-14 5.7-17c.8-2 5-1 5-1l22.8 8.7 7.6 29c.2.7.3 1.3.6 1.8 1 2.8 3.7 4.7 7 4.7 4 0 7.3-3.3 7.3-7.4l-.3-1.8c-1-5-4.6-27-5.6-31.8-1-5.4-4.5-7-4.5-7L87.8 100c-1.3-.8-1-2.8-1-2.8l4-14.4 2.7 6s1.6 3.2 4 3.3l33.4 1c4 0 7.3-3.4 7.3-7.5 0-4-3-7-6.8-7.4zM60 63l-1.7 6 10 1.8-20.3-4 .5-2.4L60 62.8zm-2 45.5l-45.4-8.8L18.8 67l12.6 2.6L29.7 81l-.6 4.5V87c0 4 3.3 7.3 7.4 7.3 4 0 7.5-3.2 7.5-7.3 0-.3 0-.6-.2-1l3-13.2L64 76l-6 32.3zM25 17h38c1.2 0 2-1 2-2s-.8-2-2-2H25c-1 0-2 1-2 2s1 2 2 2zM38 23c-1 0-2 1-2 2s1 2 2 2h23c1 0 2-1 2-2s-1-2-2-2H38z"/></g><path fill="#3A3A3A" d="M87 32.7c8.2 0 15-5.5 17-13l5.5.8h.3c1 0 2-.7 2-1.8.3-1.2-.5-2.3-1.7-2.5l-5.4-.8v-.7s-.5-6.5-1-9.2c-.7-2.7-2.7-3.3-2.7-3.3C91 0 81-.2 78.5-.2S75.4 1 75.4 1l-3 5H72c0 .2 0 .3-.2.4-1.5 2.7-2.4 5.7-2.4 9 0 9.5 8 17.3 17.5 17.3zM125.5 72l-26.7-2-9.3-21.2s-.4-2.8-6-8.5C78 34.6 66.7 37 66.7 37S42.7 41.3 35 43c-8 2-8.2 10-8.2 10l-3 22-.7 4.3v1.2c0 4 3.3 7.4 7.4 7.4 4 0 7.4-3.2 7.4-7.3v-1l4.7-21.5L54 56.8l-1.7 6 10 1.8c1.5.3 2.6 2 2.3 3.5L57 106.4c0 1.5-1.4 2.5-2.8 2.5h-1.5l-9.4-2-3 17.2-23.7 20.3c-1.7 1.4-2.8 3.5-2.8 5.8 0 4.2 3.4 7.6 7.5 7.6 2 0 4-1 5.2-2.2L56 131.8c2-1.5 2.8-3.8 2.8-3.8s4.6-14 5.8-17c1-2 5-1 5-1l22.8 8.6 7.7 29c0 .7.3 1.3.5 2 1 2.6 3.8 4.6 7 4.6 4 0 7.3-3.4 7.3-7.5 0-.6 0-1-.2-1.7l-5.5-31.8c-1-5.4-4.5-7-4.5-7L81.8 94c-1.4-1-1-3-1-3l4-14.2 2.6 6s1.7 3 4 3.3l33.5 1c4 0 7.3-3.5 7.3-7.6 0-3.8-3-7-6.8-7.4z"/><path fill="#F0C42E" d="M54 108.7h.2c1.4 0 2.7-1 3-2.4L64.5 68c.3-1.5-.8-3-2.4-3.4l-20.2-4-1.3 6L58 69.8 52 102 6.5 93.5 12.8 61l12.5 2.5 1-6-15.3-3h-.6c-1.4 0-2.7 1-3 2.5L.2 95.3c-.3 1.6.8 3.2 2.4 3.5l51.2 10h.4z"/><path fill="#F0C52E" d="M59 9c0 1-1 2-2 2H19c-1 0-2-1-2-2s1-2 2-2h38c1 0 2 1 2 2zM57 19c0 1-1 2-2 2H32c-1 0-2-1-2-2s1-2 2-2h23c1 0 2 1 2 2z"/></svg>