<svg xmlns="http://www.w3.org/2000/svg" width="171" height="195" viewBox="0 0 171 195"><g fill="#FFF"><path d="M77.7 174.6L65 159c-1.2-2-3.2-2.8-5.5-2.8-2.6 0-4.8 1.2-5.5 1.6l-5.5 2.7c-1.8-.5-5.6-2-9.3-6.3-3.3-3.8-3.2-9-3-11l5.8-6c3-2.7 2.5-6.5 1.3-8.4l-.3-.3L28.4 110c-1-1.3-2.5-2-4.2-2-3 0-6 2-6.8 2.6C6.6 118.4 6 125.2 5.8 126v.8c6.5 35.7 26 51 35.5 58.5l3 2.3c6.4 5.8 13.6 6.4 16.4 6.4 2.4 0 4.5-.4 6-1.2 4.5-2 9.5-8 11-9.7 2.5-3 1.3-6.5 0-8.2v-.2zm-14 12c-.4 0-1.5.4-3 .4s-7-.3-12-4.6l-3-2.6c-8.8-6.8-26.8-21-32.8-53.7 0-.8 1.7-4.8 8.5-9.6.6-.5 1.5-1 2-1.2l13.6 17-7.4 7.6-.2 1c0 .5-2 10.4 4.5 18 6.2 7.3 13 8.6 14.5 8.8l1 .2 7.7-3.8.2-.2c.3 0 1.4-.6 2-.6h.2c2 2.8 11 14 12.5 15.6-2.5 3-6 6.7-8.2 7.7zM137.8 65.8c5.6-5.2 7.2-12 5-20.8 0-.8-.8-1.5-1.6-1.8-.8-.2-1.8 0-2.4.6l-8.2 7.4c-1.5-.8-3.7-2.5-4.5-5.4l7-6.7c.8-.8 1-2.3 0-3.3l-.2-.2-.7-.6c0-.2-4-2.2-8.7-2.2-4.7 0-8.8 2-12 5.6-6 7-4.5 15-3.5 18.4l-3.5 3.5L94 51l4.7-3.2-20-13.7L68 44.8l13.8 20L85 60l9.3 10.3-3.3 3.3c-1.5-.5-4-1-6.7-1-5.4 0-10.2 2-14 6.3-.2.2-6.5 8-2.7 18.5.3.8 1 1.4 1.8 1.6.8.3 1.6 0 2.2-.5l8.3-7.2c1.2.6 3.5 2 4.6 6l-7.4 7.4c-.6.7-1 1.6-.6 2.5s1 1.5 1.8 1.7c0 0 2.7.5 6.2.5 6.8 0 12-2.2 15.2-6.5 3.4-4.6 4-9.5 4-13l16.2 16 .2.3c1.5 1.2 4.3 2.7 7.5 2.7 2.2 0 4.6-.8 6.8-2.8l5.5-5.6c5-5.4 2.4-11.8.2-14.4l-17-17c1 .2 2.2.3 3.4.3 5 0 8.7-1.3 11.3-3.7zM84.6 52l-2.8 4-7.3-10.7 4.8-4.7L90 47.8l-4 2.8L100.6 64l-4 4 1-1.2-13-14.8zM98 85.5c.2.3 2.7 7.7-2.2 14.5-2.8 3.8-7.8 4.6-11.4 4.5l4.7-4.7c.7-.6 1-1.4.8-2.2C88 87.4 80 86 79.8 86c-.8 0-1.6 0-2 .6L71.4 92c-.6-5.5 2.4-9.4 2.7-10 2.7-3 6-4.5 10-4.5 3.7 0 6.4 1.3 6.4 1.3 1 .4 2 .2 2.8-.5l19-19c.7-.8 1-1.8.5-2.8 0 0-3.6-8.3 2-15 2.3-2.4 5-3.7 8.3-3.7 1.2 0 2.4.2 3.4.4l-5 5c-.6.6-1 1.3-.8 2 1 8.4 9 11.2 9.2 11.3 1 .3 1.8 0 2.5-.5l6-5.5c.4 5-1 8.6-4.3 11.7-2 2-5.3 2.3-7.8 2.3-3.7 0-7-1-7-1-.8 0-1.8 0-2.4.7L98.7 83c-.7.6-1 1.6-.6 2.5zm5.6 1.8zm-.2-1zm33 10.8l-5.4 5.6c-3.2 3-7 .4-7.5 0l-18.7-18.8 15-15-2 2 18.6 18.7c.5.6 3 4.3 0 7.6zm-15-28zm-1 0z"/><path d="M104.2 6c-36.4 0-66 29.5-66 66 0 33.4 25 61 57.4 65.3v26.2s57.5-21.2 72-73.6c0-.4 0-.7.2-1l.3-1.2c.2-.3.3-.5.3-.8 1.2-4.8 1.8-10 1.8-15 0-36.5-29.4-66-65.8-66zm57.3 79.4v.2c0 .2 0 .3-.2.5 0 .5 0 1-.3 1.3v.7c-5.7 20-18.7 37.7-38.6 52.5-7.4 5.4-14.5 9.4-19.8 12v-21.4l-6-.7C67.2 126.6 45 101.3 45 72c0-32.6 26.5-59 59-59 32.4 0 59 26.4 59 59 0 4.4-.6 9-1.7 13.4z"/></g><path fill="#3A3A3A" d="M54.6 188c-2.8 0-10-.6-16.6-6.4l-2.8-2.3c-9.5-7.4-29-22.8-35.5-58.5v-.8c0-.8.7-7.6 11.6-15.4 1-.6 4-2.5 6.8-2.5 1.8 0 3.3.7 4.2 2L37 122.5v.3c1.3 2 2 5.7-1 8.4l-6 6c-.2 2-.2 7.2 3 11 3.8 4.3 7.6 5.8 9.4 6.3l5.4-2.7c.7-.4 3-1.6 5.6-1.6 2.2 0 4.2 1 5.5 2.7l12.6 15.6v.2c1.2 1.7 2.4 5.2 0 8.3-1.5 1.8-6.6 7.8-11 9.8-1.5.8-3.6 1.2-6 1.2zm-48-68C13 153 31 167 39.7 174c1 1 2.2 1.8 3 2.6 5 4.3 10.4 4.6 12 4.6 1.5 0 2.6-.3 3-.5 2.2-1 5.8-4.6 8.3-7.7l-12.6-15.6c-.8 0-1.8.5-2 .6l-.3.2-7.6 3.8-1-.2c-1.4-.2-8.4-1.5-14.6-8.8-6.5-7.6-4.6-17.5-4.6-18l.2-1 7.6-7.5c-2-2.7-10.7-13.5-13.5-17-.7.2-1.5.6-2.2 1-6.8 5-8.3 9-8.6 9.8z"/><path fill="#F0C42E" d="M78.4 103.5c-3.4 0-6-.6-6-.6-1-.3-1.7-1-2-1.8s0-1.8.7-2.5l7.4-7.5c-1-3.8-3.3-5.3-4.6-6l-8.3 7.3c-.6.6-1.5.8-2.3.6-.8 0-1.4-.7-1.7-1.5C57.5 81 64 73.2 64.2 73c3.8-4.3 8.6-6.5 14-6.5 2.8 0 5.2.6 6.7 1L101.5 51c-1-3.4-2.4-11.5 3.6-18.4 3-3.7 7.3-5.6 12-5.6 4.8 0 8.6 2 8.8 2l.7.7.2.2c.8 1 .7 2.5-.2 3.4L120 40c.7 3 3 4.6 4.4 5.4l8.2-7.4c.7-.6 1.6-.8 2.5-.6 1 .3 1.5 1 1.7 1.8 2.2 8.8.5 15.6-5 20.8-2.6 2.4-6.3 3.7-11.2 3.7-2.8 0-5.4-.4-7-.8L97.2 79.4C98 82.6 99 90 93.8 97c-3 4.3-8.4 6.5-15.3 6.5zm-.2-5c3.7 0 8.7-.7 11.4-4.5 5-6.8 2.5-14.2 2.4-14.5-.3-1 0-2 .6-2.6L111 58c.7-.6 1.6-.8 2.5-.6 0 0 3.3 1 7 1 2.4 0 5.8-.5 7.8-2.4 3.3-3 4.7-6.8 4.3-11.7l-6 5.5c-.7.6-1.7.8-2.5.5-.3 0-8.2-3-9.2-11.2 0-.8 0-1.5.7-2l5-5c-1-.3-2-.5-3.3-.5-3.3 0-6 1.3-8.2 3.8-5.7 6.6-2.2 14.8-2.2 15 .4.8.2 2-.5 2.7l-19 19c-.8.7-2 1-2.8.5 0 0-2.8-1.3-6.3-1.3-4 0-7.4 1.6-10 4.6-.5.6-3.4 4.5-3 10l6.3-5.4c.6-.5 1.3-.7 2-.6.4 0 8.3 1.4 10 11.6.3.8 0 1.6-.5 2.2l-4.8 4.7z"/><g fill="#3A3A3A"><path d="M79 54L88 64.3l3.5-3.5L78.4 46l-2.7 4-7.3-10.7 4.7-4.7L84 41.8l-4 2.8L94.6 58l3.5-3.7L88 45l4.6-3.2-20-13.7-10.7 10.7 13.7 20M117 63.3l-3.4-.6-2 2 18.7 18.8c.5.6 3 4.3 0 7.6l-5.4 5.6c-3.3 3-7 .4-7.7 0L98.7 77.7 97 79.4c.4 1 .6 2.6.7 4.5l16.2 16v.3c1.6 1.2 4.4 2.7 7.5 2.7 2.3 0 4.6-.8 7-2.8l5.4-5.6c5-5.4 2.3-11.8 0-14.4l-17-17z"/></g><path fill="#3A3A3A" d="M98 7c32.5 0 59 26.4 59 59 0 4.4-.6 9-1.6 13.4v.2c0 .2 0 .3-.2.5 0 .5-.2 1-.3 1.3l-.2.4v.3c-5.6 20-18.6 37.7-38.6 52.4-7.4 5.5-14.4 9.5-19.7 12.2V125l-6-.7C61 120.6 39 95.3 39 66 39 33.3 65.6 7 98 7m0-7C61.6 0 32 29.5 32 66c0 33.4 25 61 57.5 65.3v26.2s57.4-21.2 72-73.6c0-.4 0-.7.2-1l.3-1.2c0-.3 0-.5.2-.8 1-4.8 1.7-10 1.7-15 0-36.5-29.6-66-66-66z"/></svg>