<svg xmlns="http://www.w3.org/2000/svg" width="156" height="188" viewBox="0 0 156 188"><g fill="#FFF"><circle cx="141.3" cy="68.9" r="14.8"/><path d="M89 139.5l-7 18-22.8 14.8c-2.2 1.3-3.6 3.6-3.6 6.3 0 4 3.2 7 7 7 1.7 0 3-.4 4.3-1.2l25.4-16c3.5-2 4-5 4-5l5-16-5.8-2.6-6.5-5.3z"/><path d="M139.3 141.5s-1-4-4.6-5.2-18-7.8-18-7.8L132 103s4-9-.3-13.5-13.7-9.7-13.7-9.7h-7.5L126.3 53c3.3-5.7 1.4-13-4.3-16.4L72.6 7.4C67 4 59.6 6 56.2 11.7l-47 79.8c-3.4 5.7-1.5 13 4.2 16.5l49.4 29c5.7 3.4 13 1.5 16.4-4.2l23-39h8l-14.7 26.3s-5 9.3-.3 14.4c4.2 4.4 12.6 7 12.6 7l17.3 6.4 5.2 31.3c.5 3.5 3.5 6 7 6 4 0 7.2-3 7.2-7v-.6l-5-36zM18 100.2c-1.4-.8-2-2.7-1-4l47-80c.8-1.3 2.7-1.8 4-1L79.7 22l-50 85-11.6-6.8zm53.5 28c-1 1.5-2.8 2-4.2 1l-30-17.6 50-85 30.2 17.7c1.4.8 1.8 2.7 1 4L100 80h-8.8l-20 14.4-1 1c-1.6 1.3-2.5 3-2.5 5.2 0 4 3.2 7.2 7.2 7.2 1.4 0 3-.5 4-1.3l.6-.5 9.7-7.8-17.8 30.3z"/></g><path fill="#F0C42E" d="M49.2 6l-47 79.8c-3.4 5.7-1.5 13 4.2 16.4l49.4 29c5.7 3.5 13 1.6 16.4-4l47-80c3.4-5.6 1.5-13-4.2-16.4l-49.3-29c-5.7-3.5-13-1.5-16.5 4zM10 90.2l47-79.8c.8-1.4 2.7-2 4-1l11.6 6.7-50 85L11 94.5c-1.4-1-2-2.8-1-4.2zm101.5-47.6l-47 79.8c-1 1.4-2.7 2-4 1L30 106l50.2-85 30 17.8c1.5.8 2 2.7 1 4z"/><g fill="#3A3A3A"><circle cx="135.3" cy="63.1" r="14.8"/><path d="M82 133.8l-7.2 17.8-22.8 15c-2.2 1.2-3.7 3.5-3.7 6.2 0 4 3.3 7 7.2 7 1.5 0 3-.3 4-1.2 4-2.3 22.5-14 25.6-16 3.6-2 4.3-5 4.3-5l4.8-16-5.6-2.6-6.5-5.3zM132 135.7s-1-4-4.5-5.2-18-7.7-18-7.7l15.3-25.6s4-9-.3-13.5-13.8-9.7-13.8-9.7H84L64 88.4c-.4.3-.8.6-1 1h-.2c-1.4 1.3-2.3 3-2.3 5.2 0 4 3.2 7.2 7 7.2 1.7 0 3-.5 4.3-1.3l.6-.5L87 88h16l-14.8 26.3s-5 9.2-.3 14.3c4 4.4 12.6 7 12.6 7l17.2 6.4 5 31.3c.7 3.4 3.6 6 7.2 6 4 0 7.2-3.2 7.2-7.2v-.4l-5-36z"/></g></svg>