<svg xmlns="http://www.w3.org/2000/svg" width="64" height="67"><path fill="#2a333c" fill-rule="evenodd" d="M51.82 57.84a12.25 12.25 0 0 1 0-24.5 12.09 12.09 0 0 1 8.7 3.69V19.76l-36.17 8.36v26.63a12.18 12.18 0 1 1-12.17-12.26 12.08 12.08 0 0 1 8.69 3.7V10.9a1.75 1.75 0 0 1 1.35-1.7L61.87.04a1.72 1.72 0 0 1 1.47.34A1.74 1.74 0 0 1 64 1.74V45.6a12.23 12.23 0 0 1-12.18 12.25zM12.18 46a8.76 8.76 0 1 0 8.69 8.76A8.74 8.74 0 0 0 12.18 46zM60.52 3.94L24.35 12.3v12.23l36.17-8.36V3.94zm-8.7 32.9a8.76 8.76 0 1 0 8.7 8.75 8.74 8.74 0 0 0-8.7-8.75zM52 51a5 5 0 1 1 5-5 5 5 0 0 1-5 5zm-40 9a5 5 0 1 1 5-5 5 5 0 0 1-5 5z"/></svg>