<svg xmlns="http://www.w3.org/2000/svg" width="85" height="85"><path fill="#2a333c" fill-rule="evenodd" d="M15.58 56.43a1.37 1.37 0 0 0-1.94 1.94l12.98 12.98a1.38 1.38 0 0 0 1.94 0 1.37 1.37 0 0 0 0-1.94zm69.3-46.69A8.57 8.57 0 0 0 75.24.09a1.31 1.31 0 0 0-.66.36l-.53.53-.32-.32a1.37 1.37 0 1 0-1.94 1.94l.32.32-1.46 1.46-.32-.33a1.37 1.37 0 0 0-1.94 1.94l.32.33-1.46 1.46-.32-.33A1.37 1.37 0 1 0 65 9.39l.6.6-2.05 4.1-14.77 14.22c-3.02-2.34-9-5.73-15.21-2.39-4.15 2.21-5.26 5.03-6.23 7.52-.78 1.99-1.45 3.7-3.54 5.26-.98.72-2.78 1.08-4.87 1.49-5.2 1.04-12.35 2.47-17.04 11.14-5.58 10.33 2.7 20.35 6.53 24.18L9.5 76.6c2.91 2.91 9.4 8.4 16.89 8.4a15.08 15.08 0 0 0 7.28-1.88c8.67-4.7 10.1-11.83 11.13-17.05.42-2.08.78-3.88 1.5-4.86 1.56-2.1 3.27-2.77 5.25-3.55 2.5-.97 5.31-2.08 7.53-6.23 3.33-6.22-.06-12.2-2.4-15.22l14.21-14.77L75 19.39l.6.59a1.37 1.37 0 1 0 1.93-1.93l-.32-.33 1.46-1.46.32.33a1.38 1.38 0 0 0 1.94 0 1.37 1.37 0 0 0 0-1.94l-.32-.33 1.46-1.46.32.33a1.38 1.38 0 0 0 1.94 0 1.37 1.37 0 0 0 0-1.94l-.33-.33.53-.52a1.37 1.37 0 0 0 .36-.66zm-28.23 40.4c-1.74 3.26-3.76 4.05-6.1 4.97a12.89 12.89 0 0 0-6.46 4.47c-1.1 1.47-1.5 3.55-1.99 5.96-.98 4.94-2.2 11.09-9.74 15.16-8.72 4.72-17.54-2.65-20.93-6.04l-1.09-1.09C6.95 70.18-.42 61.35 4.3 52.63c4.08-7.54 10.23-8.76 15.17-9.75 2.4-.48 4.49-.89 5.96-1.98a12.97 12.97 0 0 0 4.46-6.46c.92-2.34 1.71-4.37 4.97-6.11 4.65-2.49 9.33-.02 11.92 1.9l-8.88 8.56-.4-.01a8.72 8.72 0 1 0 8.72 8.73v-.42l8.54-8.88c1.92 2.6 4.39 7.27 1.9 11.93zm-18.4-8.57a5.94 5.94 0 0 1 5.17 5.16v.04a5.98 5.98 0 1 1-5.93-5.25c.24 0 .48.02.72.04l.04.01zm7.2 2.35a8.65 8.65 0 0 0-1.79-2.6 8.54 8.54 0 0 0-2.59-1.78l23.57-22.7 3.5 3.5zM82.26 8.78L81.1 9.95a.04.04 0 0 1 0 .01l-3.39 3.39a.04.04 0 0 0 0 .01l-3.24 3.24-4.11 2.06-4-4.02 2.05-4.11 7.81-7.81a5.96 5.96 0 0 1 6.04 6.06z"/></svg>