<svg xmlns="http://www.w3.org/2000/svg" width="76" height="79"><path fill="#2a333c" fill-rule="evenodd" d="M66.94 2.1a17.55 17.55 0 0 0-23.61 6.82c-2.26 4.08-3.56 10.38-3.3 16.05a21.67 21.67 0 0 0 2.33 9.41 5.88 5.88 0 0 0-.45 6.07A403.9 403.9 0 0 0 38 46.34a481.19 481.19 0 0 0-3.9-5.89c.17-.33 1.84-3.4-.46-6.07a21.67 21.67 0 0 0 2.33-9.41c.26-5.67-1.04-11.97-3.3-16.05A17.56 17.56 0 0 0 9.06 2.1 17.03 17.03 0 0 0 1.6 9.95a1.17 1.17 0 0 0 .59 1.56 1.2 1.2 0 0 0 1.58-.58 14.69 14.69 0 0 1 6.43-6.77 15.2 15.2 0 0 1 17.11 1.87 35.66 35.66 0 0 1-11.02 9.1 36.2 36.2 0 0 1-13.74 4.21 14.67 14.67 0 0 1 .14-5.2 1.17 1.17 0 0 0-.92-1.39 1.2 1.2 0 0 0-1.41.91 16.91 16.91 0 0 0 1.77 11.68c2.26 4.08 6.94 8.56 11.93 11.41a22.58 22.58 0 0 0 9.3 3.16c.89 2.74 3.05 3.46 4.94 3.65 1.3 2.96 2.92 6.46 4.8 10.43a648.3 648.3 0 0 0-4.36 6.95 1.19 1.19 0 0 0 .39 1.61 1.32 1.32 0 0 0 1.64-.39c2.87-4.62 8.2-13.11 12.72-19.81a13.35 13.35 0 0 0 1.74.94 764.54 764.54 0 0 1-15.37 31.83 3.03 3.03 0 0 1-4.07 1.17 2.92 2.92 0 0 1-1.19-4c.13-.23.69-1.19 1.86-3.12a1.16 1.16 0 0 0-.41-1.61 1.2 1.2 0 0 0-1.63.41 153.6 153.6 0 0 0-1.91 3.19c-2.23 4.01.88 6.51 2.14 7.19a5.42 5.42 0 0 0 7.3-2.11c.41-.72 2.93-5.71 6.05-12.08a537.75 537.75 0 0 0 6.05 12.08 5.42 5.42 0 0 0 7.3 2.11 5.18 5.18 0 0 0 2.15-7.19c-.47-.87-5.14-8.55-10.59-17.17 1.71-3.62 3.38-7.22 4.79-10.43 1.89-.19 3.86-.67 4.95-3.66 7.92-.59 17.56-7.95 21.22-14.56A17 17 0 0 0 66.94 2.1zM6.37 27.31a17.3 17.3 0 0 1-3.27-5.67 38.65 38.65 0 0 0 14.33-4.45 38.2 38.2 0 0 0 11.56-9.46c1.7 1.58 2.65 4.5 3.07 5.78a35.4 35.4 0 0 1-11.37 9.54 35.89 35.89 0 0 1-14.32 4.26zm2 2.16a38.92 38.92 0 0 0 13.46-4.36 38.1 38.1 0 0 0 11-8.79 33.92 33.92 0 0 1 .77 7.82 37.23 37.23 0 0 1-18.97 10.19 34.46 34.46 0 0 1-6.26-4.86zm9.43 6.52a39.77 39.77 0 0 0 15.5-8.32c-.62 4.05-2.21 7.5-5.05 9.02s-6.65.98-10.45-.7zm8.23 3.84a9.69 9.69 0 0 0 6.1-3.28 3.61 3.61 0 0 1-1.58 4.28 3.57 3.57 0 0 1-4.52-1zm8.57 11.78c-1.46-3.1-2.74-5.89-3.82-8.32a5.33 5.33 0 0 0 1.74-.94c1.22 1.82 2.59 3.89 4.07 6.17zm16.8 20.68c.96 1.76-.49 3.62-1.19 4a3.03 3.03 0 0 1-4.07-1.17c-.41-.74-3.38-6.61-6.82-13.67l2.38-4.93a634.02 634.02 0 0 1 9.7 15.77zm-5.94-31.46a3.46 3.46 0 0 1-1.58-4.28 9.63 9.63 0 0 0 6.09 3.28 3.55 3.55 0 0 1-4.51 1zm6.17-3.24a8.11 8.11 0 0 1-3.88-.9c-2.6-1.4-4.38-4.62-5.06-9.04a39.18 39.18 0 0 0 7.29 5.04A40.11 40.11 0 0 0 58.22 36a16.66 16.66 0 0 1-6.59 1.59zm9.76-3.25a37.3 37.3 0 0 1-19-10.21 33.89 33.89 0 0 1 .78-7.81 38.18 38.18 0 0 0 11.01 8.79 38.62 38.62 0 0 0 13.47 4.36 34.41 34.41 0 0 1-6.26 4.87zm8.24-7.03a35.84 35.84 0 0 1-14.31-4.26 35.34 35.34 0 0 1-11.38-9.55c.42-1.27 1.69-4.56 3.08-5.77a38.04 38.04 0 0 0 11.55 9.46 38.7 38.7 0 0 0 14.33 4.45 16.47 16.47 0 0 1-3.27 5.67zm3.82-7.97a36.24 36.24 0 0 1-13.74-4.21 35.66 35.66 0 0 1-11.02-9.1A15.2 15.2 0 0 1 65.8 4.16a14.73 14.73 0 0 1 7.65 15.18zM28.54 63.52a1.2 1.2 0 0 0-1.64.39l-.64 1.04a1.17 1.17 0 0 0 .41 1.61 1.19 1.19 0 0 0 1.63-.4l.64-1.03a1.16 1.16 0 0 0-.4-1.61zM71.2 15.48a1.2 1.2 0 0 0-2.38.17c.03.3.02.61.03.91a1.19 1.19 0 0 0 2.38.04 10.47 10.47 0 0 0-.03-1.12zm-.83-3.64a12.33 12.33 0 0 0-2.42-3.86 1.2 1.2 0 0 0-1.68-.08 1.16 1.16 0 0 0-.08 1.66 10.2 10.2 0 0 1 1.96 3.13 1.24 1.24 0 0 0 1.54.67 1.17 1.17 0 0 0 .68-1.52z"/></svg>