<svg xmlns="http://www.w3.org/2000/svg" width="82.97" height="82"><path fill="#2a333c" fill-rule="evenodd" d="M39.26 46.87a1.32 1.32 0 0 0 .93-.38 1.3 1.3 0 0 0 0-1.84l-2.41-2.38a1.33 1.33 0 0 0-1.86 0 1.29 1.29 0 0 0 0 1.84l2.4 2.38a1.32 1.32 0 0 0 .94.38zm-9.34-1.12a1.3 1.3 0 0 0 0 1.84l4.89 4.83a1.33 1.33 0 0 0 1.86 0 1.29 1.29 0 0 0 0-1.83l-4.9-4.84a1.33 1.33 0 0 0-1.85 0zm5.67 12.82a1.3 1.3 0 1 1-1.32 1.3 1.3 1.3 0 0 1 1.32-1.3zm-1.23 4.95a1.3 1.3 0 1 1-1.31 1.3 1.3 1.3 0 0 1 1.31-1.3zM82.58 8.7l-1.31-1.3.72-1.27a3.78 3.78 0 0 0-.65-4.53A3.84 3.84 0 0 0 78.63.48a3.88 3.88 0 0 0-1.86.48l-1.3.7-1.3-1.29a1.33 1.33 0 0 0-1.87 0 1.29 1.29 0 0 0 0 1.84l.78.77-1.43.79-1.3-1.3a1.33 1.33 0 0 0-1.87 0 1.3 1.3 0 0 0 0 1.84l.78.77-1.43.79-1.3-1.29a1.33 1.33 0 0 0-1.87 0 1.3 1.3 0 0 0 0 1.84l.82.8c-.1.08-.19.16-.27.25a3.77 3.77 0 0 0-.38 4.92L46.7 29.5a6.68 6.68 0 0 0-2.74.51L2.84 47.25a4.66 4.66 0 0 0-1.48.99 4.6 4.6 0 0 0 0 6.54 4.7 4.7 0 0 0 3.3 1.36c.16 0 .3-.01.46-.03v-.01c.2 0 .44-.03.76-.06l4.07-.39-.25-2.59-4.82.46a2.06 2.06 0 0 1-1.66-.58 2.01 2.01 0 0 1 0-2.87 2.05 2.05 0 0 1 .65-.43l38.66-16.2-3.4 3.2a1.29 1.29 0 0 0-.02 1.86L44 43.34a1.32 1.32 0 0 0 .93.38h.01a1.32 1.32 0 0 0 .94-.4l3.25-3.36-16.4 38.2a2 2 0 0 1-.44.65 2.07 2.07 0 0 1-2.9 0 2 2 0 0 1-.6-1.63l2.02-20.6a4.58 4.58 0 0 0-1.35-3.7 4.7 4.7 0 0 0-3.76-1.34l-10.77 1.02a1.3 1.3 0 1 0 .26 2.6l10.76-1.03a2.06 2.06 0 0 1 1.65.58 2 2 0 0 1 .59 1.63l-2.01 20.59a4.58 4.58 0 0 0 1.35 3.72 4.72 4.72 0 0 0 6.62 0 4.6 4.6 0 0 0 1-1.47l17.44-40.64a6.45 6.45 0 0 0 .51-2.7L70.4 17.9a3.86 3.86 0 0 0 4.99-.37l.24-.27.82.8a1.33 1.33 0 0 0 1.86 0 1.3 1.3 0 0 0 0-1.83L77 14.95l.8-1.41.77.77a1.33 1.33 0 0 0 1.86 0 1.3 1.3 0 0 0 0-1.84l-1.3-1.3.79-1.4.78.76a1.33 1.33 0 0 0 1.86 0 1.29 1.29 0 0 0 0-1.84zM44.9 40.56l-2.99-2.95 24.74-23.34 1.86 1.84zm34.78-35.7l-5.46 9.71-.49.87a1.26 1.26 0 0 1-.2.26 1.22 1.22 0 0 1-1.7 0L67.07 11a1.19 1.19 0 0 1 0-1.69 1.23 1.23 0 0 1 .27-.2l.87-.48 9.83-5.4a1.23 1.23 0 0 1 .59-.15 1.2 1.2 0 0 1 .85.35 1.19 1.19 0 0 1 .2 1.42z"/></svg>