<svg xmlns="http://www.w3.org/2000/svg" width="99" height="94"><path fill="#2a333c" fill-rule="evenodd" d="M57.69 33.02l-2.31 1.8a13.81 13.81 0 0 1 3.05 8.7 14.2 14.2 0 1 1-5.5-11.13l1.8-2.28a16.94 16.94 0 1 0 6.65 13.4A16.66 16.66 0 0 0 57.69 33zm-13.54 5.22a5.28 5.28 0 1 0 5.35 5.28 5.32 5.32 0 0 0-5.36-5.28zm0 7.65a2.38 2.38 0 1 1 2.4-2.37 2.4 2.4 0 0 1-2.4 2.37zm49.99-5.26a4.9 4.9 0 0 0-1.92.4v-2.3a4.83 4.83 0 0 0-4.86-4.79h-.15a44.4 44.4 0 0 0-74.28-21.2 43.08 43.08 0 0 0 0 61.54 44.18 44.18 0 0 0 31.22 12.75 44.79 44.79 0 0 0 19.34-4.4A18.47 18.47 0 0 0 99 75.83v-30.4a4.83 4.83 0 0 0-4.86-4.8zm-32 13.7v15.55a32.34 32.34 0 0 1-18 5.4c-17.77 0-32.23-14.24-32.23-31.76s14.46-31.78 32.24-31.78v-2.9c-19.4 0-35.18 15.56-35.18 34.67S24.75 78.2 44.15 78.2a35.32 35.32 0 0 0 18-4.88v3.12l.02.4v.1a16.38 16.38 0 0 0 .08.9v.04l.07.48q.1.75.27 1.49a41.79 41.79 0 0 1-18.45 4.29c-22.72 0-41.2-18.22-41.2-40.62S21.42 2.9 44.14 2.9a41.13 41.13 0 0 1 39.83 30.2q-.09-.1-.18-.17l-.04-.03a3.93 3.93 0 0 0-.2-.17l-.06-.04a5.92 5.92 0 0 0-.25-.18l-.03-.02-.23-.14-.07-.03-.27-.14-.03-.02a5.69 5.69 0 0 0-.26-.1l-.07-.03a7.2 7.2 0 0 0-.3-.1h-.02c-.1-.04-.18-.06-.28-.08l-.08-.02-.3-.06h-.02l-.3-.03h-.09l-.33-.02a4.83 4.83 0 0 0-4.86 4.8v.05a4.87 4.87 0 0 0-6.78 4.4v8.97a4.9 4.9 0 0 0-1.92-.39 4.83 4.83 0 0 0-4.85 4.8zm33.92 21.5a15.51 15.51 0 0 1-30.42 4.03 16.39 16.39 0 0 1-.34-1.5l-.04-.3c-.04-.2-.06-.4-.08-.6l-.02-.22-.04-.5-.01-.22c-.02-.22-.02-.45-.02-.69v-21.5a1.92 1.92 0 0 1 3.84 0v15.15h2.94V40.97a1.92 1.92 0 0 1 3.84 0v20.7h2.94V36.52a1.92 1.92 0 0 1 3.85 0v22.94h2.94V38.74a1.92 1.92 0 0 1 .02-.26v-.06a1.7 1.7 0 0 1 .06-.22v-.03a1.9 1.9 0 0 1 .09-.21 1.47 1.47 0 0 1 .12-.23l.07-.1.1-.13.07-.07a1.85 1.85 0 0 1 .14-.14l.05-.04a2.08 2.08 0 0 1 .18-.12l.05-.03a1.92 1.92 0 0 1 2.89 1.64v22.94h2.94V45.42a1.92 1.92 0 0 1 3.84 0v30.41zM44.15 20.6v-2.9a25.83 25.83 0 1 0 0 51.65v-2.9a22.93 22.93 0 1 1 0-45.85z"/></svg>