<svg xmlns="http://www.w3.org/2000/svg" width="68" height="76"><path fill="#2a333c" fill-rule="evenodd" d="M67.65 35.33L51.77 19.51a1.02 1.02 0 0 0-1.12-.23 1.03 1.03 0 0 0-.64.95 6.97 6.97 0 0 1-2.39 5.28 27.7 27.7 0 0 0-9.55 20.92v14.63a3.01 3.01 0 0 1-3.02 3 3.01 3.01 0 0 1-2.65-1.58 3.66 3.66 0 0 0-.5-5.77l-.08-2.39a3.67 3.67 0 0 0-.2-6.37l-.06-2.08a3.67 3.67 0 0 0-.2-6.65l-.06-1.83a3.67 3.67 0 0 0-.22-6.87l-.05-1.62a3.68 3.68 0 0 0-.22-7.06l-.38-12.32a9.03 9.03 0 0 0-3.12-6.36A9.5 9.5 0 0 0 21.17.58H17.2a1.5 1.5 0 0 0-.2.02h-1.8a1.04 1.04 0 0 0-.94-.6H6.31a1.02 1.02 0 0 0-.74.31L.29 5.7a1.02 1.02 0 0 0 .74 1.74h13.23a1.03 1.03 0 0 0 1.01-.82h1.44a1.04 1.04 0 0 0 .5.13H21a4.36 4.36 0 0 1 2.46 1.26 1.69 1.69 0 0 1 .57 1.19l-1.47 51.66-.01.45a14.76 14.76 0 0 0 29.51-.01v-2.97c0-7.08.64-11.24 2.12-13.9 1.39-2.49 3.49-3.68 6.67-5.48l.25-.14a9.65 9.65 0 0 1 4.57-1.69h1.29A1.03 1.03 0 0 0 68 36.1a1 1 0 0 0-.35-.77zm-39.23-6.56l.24.09.05.02a2.5 2.5 0 0 0 .26.08l.05 1.47H29a2.43 2.43 0 0 0-.26.08l-.05.01a2.37 2.37 0 0 0-.25.1l-.03.01a2.02 2.02 0 0 0-.22.11v-2.08l.18.09a.1.1 0 0 1 .05.02zm-.08 8.56a2.78 2.78 0 0 0 .27.11.1.1 0 0 1 .01.01l.28.09a.06.06 0 0 1 .04.01l.28.06a.03.03 0 0 1 .02.01l.05 1.35-.09.01-.06.02a.48.48 0 0 0-.12.02l-.05.02-.17.04-.05.02a.5.5 0 0 0-.11.04.16.16 0 0 0-.07.02l-.1.04-.06.03a.34.34 0 0 0-.1.04l-.06.03-.06.03v-2.07l.12.06.03.01zm-.01 8.59l.08.04.08.03.08.03a.25.25 0 0 0 .08.03l.1.03.07.03.1.03a.21.21 0 0 1 .07.02.35.35 0 0 1 .1.02.2.2 0 0 1 .07.02.44.44 0 0 1 .11.02.14.14 0 0 1 .07.01l.17.02.04 1.28h-.01a.23.23 0 0 1-.09.01l-.1.02a.24.24 0 0 0-.08.01.32.32 0 0 0-.1.02l-.08.01a.31.31 0 0 1-.09.02l-.08.03a.3.3 0 0 0-.09.02l-.08.03-.09.03a.21.21 0 0 0-.07.02l-.1.04-.07.03a.34.34 0 0 0-.08.04l-.07.03-.08.04v-2.08a.23.23 0 0 1 .06.04zm2 3.71a1.62 1.62 0 0 1 .1 3.09 1.6 1.6 0 0 1-.54.09 1.62 1.62 0 1 1 .45-3.18zm-2.14 6.9v-2.08l.07.04.08.03a.31.31 0 0 0 .08.04l.08.03a.34.34 0 0 0 .09.04l.08.03.09.03.08.02.1.03.07.02.1.02.08.02.1.02.09.01.1.01.08.01.1.01h.09a.07.07 0 0 1 .04.01l.04 1.24a.13.13 0 0 0-.06.01h-.1a.33.33 0 0 0-.1.01h-.09l-.1.02-.08.01a.33.33 0 0 0-.1.02l-.09.01a.32.32 0 0 1-.1.02l-.08.03a.3.3 0 0 0-.09.02l-.08.03-.09.03-.08.02a.36.36 0 0 1-.09.04l-.07.03-.09.04a.27.27 0 0 0-.08.04.31.31 0 0 0-.07.04zm1.7 1.64a1.8 1.8 0 0 1 .61.11 1.63 1.63 0 0 1 .16 2.94 1.7 1.7 0 0 1-.77.19 1.62 1.62 0 1 1 0-3.24zm.38-14h-.01a1.41 1.41 0 0 1-.37.04 1.61 1.61 0 0 1-1.62-1.79.33.33 0 0 1 .01-.05l.02-.12.02-.06.03-.11a.24.24 0 0 0 .02-.05.6.6 0 0 1 .04-.1l.03-.06.05-.09.03-.06a.78.78 0 0 0 .06-.08l.04-.05a.39.39 0 0 1 .06-.07l.05-.06.06-.05.06-.06.04-.03a1.59 1.59 0 0 1 .5-.27.01.01 0 0 0 .02-.01l.12-.03a.06.06 0 0 0 .04-.01l.11-.01a.14.14 0 0 1 .07-.01.31.31 0 0 0 .1-.01.35.35 0 0 1 .1.01H30a.89.89 0 0 1 .16.02h.01a1.62 1.62 0 0 1 .1 3.17zm-.17-8.57a1.42 1.42 0 0 1-.2.02 1.62 1.62 0 1 1 0-3.24h.1a1.62 1.62 0 0 1 .1 3.22zm1.42-10.2a1.62 1.62 0 0 1-1.58 1.62h-.05a1.62 1.62 0 0 1-.05-3.24h.05a1.63 1.63 0 0 1 1.63 1.62zM13.23 5.39h-1V2.05h1v3.34zm-3.06 0H9.1V2.05h1.07v3.34zM6.74 2.05h.3v3.34H3.48zm8.56.61h.88v1.91h-.88V2.66zm44.8 34.36l-.26.15c-3.23 1.82-5.78 3.27-7.45 6.26s-2.38 7.44-2.38 14.9v2.97a12.7 12.7 0 0 1-25.39.01v-.39L26.1 9.25a3.69 3.69 0 0 0-1.12-2.65 6.27 6.27 0 0 0-3.92-1.91h-2.81V2.63h2.93c3.16 0 7.08 3.1 7.2 6.95l.38 12.32a.02.02 0 0 0-.02.01 2.14 2.14 0 0 0-.24.08.07.07 0 0 1-.04.02 2.15 2.15 0 0 0-.23.11l-.03.01v-.7a1.03 1.03 0 0 0-2.06 0v43.63a1.03 1.03 0 0 0 2.06 0v-2.01a3.73 3.73 0 0 0 1.7.41 2.92 2.92 0 0 0 .3-.01l.08-.01.26-.03a.03.03 0 0 1 .03-.01 5.08 5.08 0 0 0 8.09 1.23 5 5 0 0 0 1.48-3.57V46.43a25.65 25.65 0 0 1 8.85-19.37 9 9 0 0 0 2.83-4.62l12.76 12.72a13.91 13.91 0 0 0-4.48 1.86zm-7.66-10.47a1.02 1.02 0 0 1-.1 1.45 25.84 25.84 0 0 0-8.25 13.88 1.03 1.03 0 0 1-1 .81 1.67 1.67 0 0 1-.23-.02 1.03 1.03 0 0 1-.78-1.23 27.91 27.91 0 0 1 8.9-14.99 1.03 1.03 0 0 1 1.46.1zm-11 20.82c0-.74.03-1.48.09-2.21a1.03 1.03 0 0 1 2.05.16c-.05.68-.08 1.37-.08 2.05a1.04 1.04 0 0 1-2.07 0zm3.64 1.09a3.85 3.85 0 1 0 3.87 3.86 3.87 3.87 0 0 0-3.88-3.86zm0 5.66a1.8 1.8 0 1 1 1.8-1.8 1.8 1.8 0 0 1-1.8 1.8zm0 2.61a3.85 3.85 0 1 0 3.87 3.86 3.87 3.87 0 0 0-3.88-3.86zm0 5.66a1.8 1.8 0 1 1 1.8-1.8 1.8 1.8 0 0 1-1.8 1.8z"/></svg>