<svg xmlns="http://www.w3.org/2000/svg" width="70" height="70"><path fill="#2a333c" fill-rule="evenodd" d="M69.32.68a2.31 2.31 0 0 0-1.84-.67l-5.34.42a2.29 2.29 0 0 0-1.47.68l-.64.63a1.04 1.04 0 1 0-1.47 1.48l-.78.78a1.04 1.04 0 1 0-1.47 1.47l-.76.76a2.34 2.34 0 0 0-.68 1.6l-.06 2.9-8.37 7.33a18.43 18.43 0 0 0-7.5-2.9 1.04 1.04 0 0 0-.3 2.06 17.1 17.1 0 0 1 14.3 15.54 14.39 14.39 0 0 1-.79 5.7 13.23 13.23 0 0 1-3.13 4.99 15.81 15.81 0 0 1-4.52 2.92c-.18.09-2.5.75-2.64 4.61a17.64 17.64 0 0 1-5.06 11.91 16.96 16.96 0 0 1-6.48 4.05 18.77 18.77 0 0 1-7.45.98A22.78 22.78 0 0 1 2.12 47.16a18.78 18.78 0 0 1 .98-7.46 17.03 17.03 0 0 1 4.05-6.48 17.7 17.7 0 0 1 11.9-5.07s3.55.05 4.45-2.3a17.18 17.18 0 0 1 3.08-4.86 13.2 13.2 0 0 1 4.99-3.13 1.04 1.04 0 0 0-.7-1.97 15.37 15.37 0 0 0-5.76 3.63 17.47 17.47 0 0 0-3.53 5.52c-.06.1-.59.85-2.64 1.04a19.68 19.68 0 0 0-13.26 5.67 19.05 19.05 0 0 0-4.54 7.27 20.82 20.82 0 0 0-1.1 8.28A24.87 24.87 0 0 0 22.75 70 24.55 24.55 0 0 0 31 68.91a19.45 19.45 0 0 0 7.26-4.55 20.68 20.68 0 0 0 5.67-13.31c.17-2.31 1.28-2.72 1.43-2.79a17.64 17.64 0 0 0 5.12-3.34 15.24 15.24 0 0 0 3.62-5.77 16.46 16.46 0 0 0 .9-6.52 18.39 18.39 0 0 0-3.06-9.05l7.33-8.38 2.9-.06a2.3 2.3 0 0 0 1.6-.68l.76-.76A1.04 1.04 0 1 0 66 12.22l.78-.78a1.04 1.04 0 1 0 1.47-1.47l.64-.63a2.37 2.37 0 0 0 .68-1.47L70 2.52a2.36 2.36 0 0 0-.68-1.84zM50.7 21.9a11.14 11.14 0 0 0-2.56-2.56l7.66-6.71 1.58 1.58zM67.42 7.86l-5.12 5.13c-.04.05-2.96.14-2.96.14a.25.25 0 0 1-.18-.08l-2.2-2.2c-.05-.05.02-3.1.06-3.15l5.13-5.12c.04-.05 5.5-.5 5.5-.5a.48.48 0 0 1 .2.08.24.24 0 0 1 .07.2s-.45 5.46-.5 5.5zM38.05 31.97a6.02 6.02 0 1 0 1.76 4.25 5.99 5.99 0 0 0-1.76-4.25zM36.58 39a3.93 3.93 0 0 1-6.7-2.78 3.93 3.93 0 1 1 6.7 2.78zm-.98-24.02c-.46.02-.93.06-1.38.12a1.04 1.04 0 0 0-.9 1.16.97.97 0 0 0 1.16.9 16 16 0 0 1 1.21-.1 1.04 1.04 0 0 0-.09-2.08zm-9.1 40.54l-1.66-1.65 1.39-1.38a1.04 1.04 0 0 0-1.47-1.47l-1.39 1.38-2.13-2.13 3.11-3.12a1.04 1.04 0 1 0-1.47-1.47l-3.11 3.12-2.14-2.14 4.8-4.8a1.04 1.04 0 0 0-1.48-1.47l-4.79 4.8-1.65-1.65a3.13 3.13 0 1 0-4.43 4.43l11.98 11.99a3.14 3.14 0 0 0 4.43-4.44zm-1.48 2.97a1.05 1.05 0 0 1-1.5 0L11.56 46.5a1.05 1.05 0 0 1 .75-1.8 1.05 1.05 0 0 1 .74.31L25.02 57a1.05 1.05 0 0 1 0 1.49zM63.24 5.03l-.61-.61a.55.55 0 0 0-.79 0l-.6.61a.55.55 0 0 0 0 .78l.6.61a.55.55 0 0 0 .79 0l.6-.61a.55.55 0 0 0 0-.78zm2.34 2.35l-.6-.61a.55.55 0 0 0-.79 0l-.6.61a.55.55 0 0 0 0 .78l.6.61a.57.57 0 0 0 .79 0l.6-.61a.55.55 0 0 0 0-.78zm-2.25 2.25l-.6-.61a.57.57 0 0 0-.79 0l-.6.61a.55.55 0 0 0 0 .78l.6.61a.55.55 0 0 0 .79 0l.6-.61a.55.55 0 0 0 0-.78zM61 7.28l-.61-.61a.57.57 0 0 0-.79 0l-.6.61a.55.55 0 0 0 0 .78l.6.61a.55.55 0 0 0 .79 0l.6-.61a.55.55 0 0 0 0-.78zM41.5 28.51a10.9 10.9 0 0 0-15.41 0 10.9 10.9 0 1 0 15.4 0zm-1.47 13.95a8.83 8.83 0 0 1-12.48 0 8.82 8.82 0 1 1 12.48 0z"/></svg>