<svg xmlns="http://www.w3.org/2000/svg" width="67" height="71"><path d="M66.2 10.3a1.233 1.233 0 0 0-1.364.337L48.6 29.017 33.337 46.294 18.167 32.34a.256.256 0 0 0-.026-.02c-.022-.02-.046-.038-.07-.056s-.05-.038-.076-.054l-.073-.043c-.029-.015-.059-.031-.089-.044l-.03-.016c-.015-.006-.031-.009-.046-.014a1.04 1.04 0 0 0-.094-.032l-.082-.019a1.358 1.358 0 0 0-.092-.016l-.086-.008h-.092a.844.844 0 0 0-.087 0c-.03 0-.06.007-.09.012a1.216 1.216 0 0 0-.26.072c-.013 0-.027.008-.04.014l-.041.022-.081.043c-.027.015-.052.032-.077.05s-.048.033-.07.051-.05.042-.074.065-.025.019-.036.031l-16.1 16.3a1.243 1.243 0 0 0-.359.874v20.2A1.24 1.24 0 0 0 1.238 71h64.526A1.239 1.239 0 0 0 67 69.758v-58.3a1.243 1.243 0 0 0-.8-1.158zM32.191 68.516h-13.62V53.991a1.237 1.237 0 1 0-2.473 0v14.524H2.474V50.07l13.624-13.8v12.75a1.237 1.237 0 1 0 2.473 0V36.078l13.623 12.531v19.907zm32.334 0H50.763v-7.867a1.237 1.237 0 1 0-2.473 0v7.867H34.667V48.534L48.29 33.112v22.569a1.237 1.237 0 1 0 2.473 0V30.313l13.765-15.581v53.784zM58.986 1.263v-.096l-.006-.059-.009-.059c0-.021-.008-.041-.013-.062a.562.562 0 0 0-.015-.055q-.007-.03-.018-.06l-.02-.056c-.007-.019-.015-.036-.023-.054l-.028-.057-.025-.048A.81.81 0 0 0 58.794.6l-.03-.045a1.171 1.171 0 0 0-.076-.096l-.041-.047-.045-.044-.026-.025-.017-.014c-.017-.015-.034-.028-.051-.041l-.047-.036-.05-.032c-.017-.011-.035-.023-.053-.033l-.049-.025-.059-.029-.05-.02-.062-.023-.051-.014-.065-.017-.051-.01-.069-.011h-.139L53.129 0h-.009a1.242 1.242 0 0 0-.007 2.484l1.9.012L33.34 27 18.169 13.04a1.232 1.232 0 0 0-1.712.041l-16.1 16.3a1.245 1.245 0 0 0 .007 1.756 1.231 1.231 0 0 0 1.748-.006l15.261-15.456 15.22 14a1.232 1.232 0 0 0 1.758-.091L56.535 4.511l.008 1.419a1.24 1.24 0 0 0 1.236 1.234h.008a1.24 1.24 0 0 0 1.229-1.25z" fill="#2a333c" fill-rule="evenodd"/></svg>