<svg xmlns="http://www.w3.org/2000/svg" width="20" height="18"><path data-name="Forma 1" d="M19.772 4.72L15.157.22a.742.742 0 0 0-.541-.22.84.84 0 0 0-.3.06.7.7 0 0 0-.468.69V3h-1.924a19.285 19.285 0 0 0-2.362.13 11.47 11.47 0 0 0-1.917.36 8.205 8.205 0 0 0-1.5.56 6.839 6.839 0 0 0-1.136.72 4.981 4.981 0 0 0-.824.87 5.332 5.332 0 0 0-.565.96 5.229 5.229 0 0 0-.336 1.03 7.8 7.8 0 0 0-.169 1.05c-.028.33-.042.69-.042 1.07a5.459 5.459 0 0 0 .211 1.43 9.262 9.262 0 0 0 .462 1.34c.169.37.367.76.6 1.16s.386.67.474.8.173.26.253.37a.381.381 0 0 0 .312.15 1.244 1.244 0 0 0 .144-.02.364.364 0 0 0 .241-.4q-.542-3.945.889-5.55Q8.042 7.5 11.924 7.5h1.923v2.25a.7.7 0 0 0 .469.69.84.84 0 0 0 .3.06.717.717 0 0 0 .541-.22l4.615-4.5a.728.728 0 0 0 0-1.06zm-3.1 6.53a.375.375 0 0 0-.421.09 2.468 2.468 0 0 1-.649.44.369.369 0 0 0-.216.34v2.51a1.786 1.786 0 0 1-.565 1.32 1.865 1.865 0 0 1-1.358.55h-10a1.862 1.862 0 0 1-1.358-.55 1.786 1.786 0 0 1-.565-1.32V4.87a1.786 1.786 0 0 1 .565-1.32A1.862 1.862 0 0 1 3.463 3h1.346a.628.628 0 0 0 .193-.05 8.261 8.261 0 0 1 1.6-.7.35.35 0 0 0 .313-.38.344.344 0 0 0-.114-.26.394.394 0 0 0-.271-.11H3.465a3.379 3.379 0 0 0-2.446.99A3.2 3.2 0 0 0 .003 4.87v9.76a3.2 3.2 0 0 0 1.016 2.38 3.379 3.379 0 0 0 2.446.99h10a3.379 3.379 0 0 0 2.446-.99 3.2 3.2 0 0 0 1.016-2.38v-3.04a.352.352 0 0 0-.256-.34z" fill="#2a333c" fill-rule="evenodd"/></svg>