<svg xmlns="http://www.w3.org/2000/svg" width="24" height="19"><path d="M23.338.35a9.893 9.893 0 0 1-3.129 1.16A4.98 4.98 0 0 0 16.616 0a4.864 4.864 0 0 0-4.924 4.8 4.7 4.7 0 0 0 .128 1.09A14.108 14.108 0 0 1 1.672.88a4.648 4.648 0 0 0-.666 2.41 4.767 4.767 0 0 0 2.19 3.99 5.061 5.061 0 0 1-2.23-.6v.06a4.832 4.832 0 0 0 3.948 4.7 5.023 5.023 0 0 1-1.3.17 4.738 4.738 0 0 1-.927-.09 4.918 4.918 0 0 0 4.6 3.34 10.087 10.087 0 0 1-6.115 2.05 9.116 9.116 0 0 1-1.174-.07A14.215 14.215 0 0 0 7.545 19 13.726 13.726 0 0 0 21.553 5.35l-.016-.62a9.9 9.9 0 0 0 2.461-2.48 9.888 9.888 0 0 1-2.827.75A4.82 4.82 0 0 0 23.338.35z" fill="#30333c" fill-rule="evenodd"/></svg>