<svg xmlns="http://www.w3.org/2000/svg" width="23" height="23"><path d="M16.652 0H6.347A6.356 6.356 0 0 0 0 6.35v10.3A6.356 6.356 0 0 0 6.347 23h10.305A6.357 6.357 0 0 0 23 16.65V6.35A6.357 6.357 0 0 0 16.652 0zm4.307 16.65a4.311 4.311 0 0 1-4.307 4.31H6.347a4.311 4.311 0 0 1-4.307-4.31V6.35a4.311 4.311 0 0 1 4.307-4.31h10.305a4.311 4.311 0 0 1 4.307 4.31v10.3zM11.5 5.57a5.93 5.93 0 1 0 5.926 5.93A5.935 5.935 0 0 0 11.5 5.57zm0 9.81a3.885 3.885 0 1 1 3.885-3.88 3.887 3.887 0 0 1-3.885 3.88zm6.175-11.54a1.5 1.5 0 0 0-1.5 1.5 1.52 1.52 0 0 0 .44 1.06 1.491 1.491 0 0 0 2.115 0 1.518 1.518 0 0 0 .438-1.06 1.5 1.5 0 0 0-1.493-1.5z" fill="#30333c" fill-rule="evenodd"/></svg>