<svg xmlns="http://www.w3.org/2000/svg" width="74" height="70"><g fill="#81B3D2"><path d="M69.9 46.7H4c-2.3 0-4.2 2-4.2 4.3v3.5c0 2.4 1.9 4.3 4.2 4.3H5v1C5 65.5 9.3 70 14.6 70h44.7c5.3 0 9.6-4.6 9.6-10.1v-1h1c2.2 0 4-2 4-4.4V51c0-2.4-1.8-4.3-4-4.3zM66 60c0 3.9-3 7-6.7 7H14.6A6.9 6.9 0 0 1 8 60v-1H66v1zm5-5.4c0 .7-.5 1.3-1.1 1.3H4c-.6 0-1.2-.6-1.2-1.3V51c0-.7.6-1.2 1.3-1.2h65.8c.6 0 1.2.5 1.2 1.2v3.5zM15.6 38.4l5.4 4 5.3-4 5.3 4 5.3-4 5.4 4 5.3-4 5.3 4 5.4-4 5.3 4 6.2-4.6-1.7-2.5-4.5 3.4-5.3-4-5.4 4-5.3-4-5.3 4-5.4-4-5.3 4-5.3-4-5.3 4-5.4-4-5.3 4-4.5-3.4-1.7 2.5 6.2 4.7zM8 31.5h60.9v-1.8-1.2C68.2 12.7 54.2 0 36.9 0 19.8 0 5.8 12.7 5 28.5a26.9 26.9 0 0 0 0 3h3zM37 3c15.5 0 28.3 11.4 29 25.5H8C8.5 14.4 21.3 3 37 3z"/><ellipse cx="37" cy="15.3" rx="1.9" ry="2"/><ellipse cx="29.2" cy="10.2" rx="1.9" ry="2"/><ellipse cx="44.7" cy="10.2" rx="1.9" ry="2"/></g></svg>